<mxfile host="app.diagrams.net" modified="2022-03-30T20:28:54.461Z" agent="5.0 (Windows NT 10.0; Win64; x64) AppleWebKit/537.36 (KHTML, like Gecko) Chrome/99.0.4844.82 Safari/537.36" etag="VosnBt5ezsqHFyLKtlbG" version="17.2.4" type="github">
  <diagram id="ArGW7IDya43heI2d5whR" name="Page-1">
    <mxGraphModel dx="3038" dy="1172" grid="1" gridSize="10" guides="1" tooltips="1" connect="1" arrows="1" fold="1" page="1" pageScale="1" pageWidth="850" pageHeight="1100" math="0" shadow="0">
      <root>
        <mxCell id="0" />
        <mxCell id="1" parent="0" />
        <mxCell id="jDXTL4kX9GD-vCOHamEt-2" value="BusinessUser" style="swimlane;fontStyle=0;childLayout=stackLayout;horizontal=1;startSize=30;horizontalStack=0;resizeParent=1;resizeParentMax=0;resizeLast=0;collapsible=1;marginBottom=0;" parent="1" vertex="1">
          <mxGeometry x="-210" y="370" width="140" height="60" as="geometry" />
        </mxCell>
        <mxCell id="jDXTL4kX9GD-vCOHamEt-3" value="account:Account" style="text;strokeColor=none;fillColor=none;align=left;verticalAlign=middle;spacingLeft=4;spacingRight=4;overflow=hidden;points=[[0,0.5],[1,0.5]];portConstraint=eastwest;rotatable=0;" parent="jDXTL4kX9GD-vCOHamEt-2" vertex="1">
          <mxGeometry y="30" width="140" height="30" as="geometry" />
        </mxCell>
        <mxCell id="jDXTL4kX9GD-vCOHamEt-6" value="Vehicle" style="swimlane;fontStyle=0;childLayout=stackLayout;horizontal=1;startSize=30;horizontalStack=0;resizeParent=1;resizeParentMax=0;resizeLast=0;collapsible=1;marginBottom=0;" parent="1" vertex="1">
          <mxGeometry x="410" y="55" width="200" height="150" as="geometry" />
        </mxCell>
        <mxCell id="jDXTL4kX9GD-vCOHamEt-7" value="number_plate: str" style="text;strokeColor=none;fillColor=none;align=left;verticalAlign=middle;spacingLeft=4;spacingRight=4;overflow=hidden;points=[[0,0.5],[1,0.5]];portConstraint=eastwest;rotatable=0;" parent="jDXTL4kX9GD-vCOHamEt-6" vertex="1">
          <mxGeometry y="30" width="200" height="30" as="geometry" />
        </mxCell>
        <mxCell id="jDXTL4kX9GD-vCOHamEt-8" value="company: Company" style="text;strokeColor=none;fillColor=none;align=left;verticalAlign=middle;spacingLeft=4;spacingRight=4;overflow=hidden;points=[[0,0.5],[1,0.5]];portConstraint=eastwest;rotatable=0;" parent="jDXTL4kX9GD-vCOHamEt-6" vertex="1">
          <mxGeometry y="60" width="200" height="30" as="geometry" />
        </mxCell>
        <mxCell id="jDXTL4kX9GD-vCOHamEt-46" value="passengerCount: INT" style="text;strokeColor=none;fillColor=none;align=left;verticalAlign=middle;spacingLeft=4;spacingRight=4;overflow=hidden;points=[[0,0.5],[1,0.5]];portConstraint=eastwest;rotatable=0;" parent="jDXTL4kX9GD-vCOHamEt-6" vertex="1">
          <mxGeometry y="90" width="200" height="30" as="geometry" />
        </mxCell>
        <mxCell id="jDXTL4kX9GD-vCOHamEt-43" value="category:VehicleCategory" style="text;strokeColor=none;fillColor=none;align=left;verticalAlign=middle;spacingLeft=4;spacingRight=4;overflow=hidden;points=[[0,0.5],[1,0.5]];portConstraint=eastwest;rotatable=0;" parent="jDXTL4kX9GD-vCOHamEt-6" vertex="1">
          <mxGeometry y="120" width="200" height="30" as="geometry" />
        </mxCell>
        <mxCell id="jDXTL4kX9GD-vCOHamEt-14" style="rounded=0;orthogonalLoop=1;jettySize=auto;html=1;elbow=vertical;edgeStyle=orthogonalEdgeStyle;exitX=0;exitY=0.5;exitDx=0;exitDy=0;endArrow=none;endFill=0;entryX=1;entryY=0.25;entryDx=0;entryDy=0;strokeWidth=1;endSize=11;startArrow=diamondThin;startFill=0;startSize=14;" parent="1" source="jDXTL4kX9GD-vCOHamEt-12" target="jDXTL4kX9GD-vCOHamEt-2" edge="1">
          <mxGeometry relative="1" as="geometry">
            <mxPoint x="10" y="450" as="targetPoint" />
          </mxGeometry>
        </mxCell>
        <mxCell id="jDXTL4kX9GD-vCOHamEt-10" value="Company" style="swimlane;fontStyle=0;childLayout=stackLayout;horizontal=1;startSize=30;horizontalStack=0;resizeParent=1;resizeParentMax=0;resizeLast=0;collapsible=1;marginBottom=0;" parent="1" vertex="1">
          <mxGeometry x="110" y="180" width="170" height="180" as="geometry" />
        </mxCell>
        <mxCell id="jDXTL4kX9GD-vCOHamEt-11" value="name: str" style="text;strokeColor=none;fillColor=none;align=left;verticalAlign=middle;spacingLeft=4;spacingRight=4;overflow=hidden;points=[[0,0.5],[1,0.5]];portConstraint=eastwest;rotatable=0;" parent="jDXTL4kX9GD-vCOHamEt-10" vertex="1">
          <mxGeometry y="30" width="170" height="30" as="geometry" />
        </mxCell>
        <mxCell id="jDXTL4kX9GD-vCOHamEt-12" value="owner: BusinessUser" style="text;strokeColor=none;fillColor=none;align=left;verticalAlign=middle;spacingLeft=4;spacingRight=4;overflow=hidden;points=[[0,0.5],[1,0.5]];portConstraint=eastwest;rotatable=0;" parent="jDXTL4kX9GD-vCOHamEt-10" vertex="1">
          <mxGeometry y="60" width="170" height="30" as="geometry" />
        </mxCell>
        <mxCell id="jDXTL4kX9GD-vCOHamEt-28" value="moderated:Boolean" style="text;strokeColor=none;fillColor=none;align=left;verticalAlign=middle;spacingLeft=4;spacingRight=4;overflow=hidden;points=[[0,0.5],[1,0.5]];portConstraint=eastwest;rotatable=0;" parent="jDXTL4kX9GD-vCOHamEt-10" vertex="1">
          <mxGeometry y="90" width="170" height="30" as="geometry" />
        </mxCell>
        <mxCell id="jDXTL4kX9GD-vCOHamEt-85" value="blocked:Boolean" style="text;strokeColor=none;fillColor=none;align=left;verticalAlign=middle;spacingLeft=4;spacingRight=4;overflow=hidden;points=[[0,0.5],[1,0.5]];portConstraint=eastwest;rotatable=0;" parent="jDXTL4kX9GD-vCOHamEt-10" vertex="1">
          <mxGeometry y="120" width="170" height="30" as="geometry" />
        </mxCell>
        <mxCell id="jDXTL4kX9GD-vCOHamEt-126" value="documents: List[Document]" style="text;strokeColor=none;fillColor=none;align=left;verticalAlign=middle;spacingLeft=4;spacingRight=4;overflow=hidden;points=[[0,0.5],[1,0.5]];portConstraint=eastwest;rotatable=0;" parent="jDXTL4kX9GD-vCOHamEt-10" vertex="1">
          <mxGeometry y="150" width="170" height="30" as="geometry" />
        </mxCell>
        <mxCell id="jDXTL4kX9GD-vCOHamEt-15" style="edgeStyle=orthogonalEdgeStyle;rounded=0;orthogonalLoop=1;jettySize=auto;html=1;elbow=vertical;entryX=1;entryY=0.5;entryDx=0;entryDy=0;endArrow=none;endFill=0;strokeWidth=1;endSize=11;startArrow=diamondThin;startFill=0;startSize=14;" parent="1" source="jDXTL4kX9GD-vCOHamEt-8" target="jDXTL4kX9GD-vCOHamEt-11" edge="1">
          <mxGeometry relative="1" as="geometry">
            <Array as="points">
              <mxPoint x="360" y="130" />
              <mxPoint x="360" y="225" />
            </Array>
          </mxGeometry>
        </mxCell>
        <mxCell id="jDXTL4kX9GD-vCOHamEt-29" value="Moderator" style="swimlane;fontStyle=0;childLayout=stackLayout;horizontal=1;startSize=30;horizontalStack=0;resizeParent=1;resizeParentMax=0;resizeLast=0;collapsible=1;marginBottom=0;" parent="1" vertex="1">
          <mxGeometry x="-420" y="355" width="140" height="60" as="geometry" />
        </mxCell>
        <mxCell id="jDXTL4kX9GD-vCOHamEt-30" value="account:Account" style="text;strokeColor=none;fillColor=none;align=left;verticalAlign=middle;spacingLeft=4;spacingRight=4;overflow=hidden;points=[[0,0.5],[1,0.5]];portConstraint=eastwest;rotatable=0;" parent="jDXTL4kX9GD-vCOHamEt-29" vertex="1">
          <mxGeometry y="30" width="140" height="30" as="geometry" />
        </mxCell>
        <mxCell id="jDXTL4kX9GD-vCOHamEt-34" value="CompanyApprovement" style="swimlane;fontStyle=0;childLayout=stackLayout;horizontal=1;startSize=30;horizontalStack=0;resizeParent=1;resizeParentMax=0;resizeLast=0;collapsible=1;marginBottom=0;" parent="1" vertex="1">
          <mxGeometry x="-170" y="168" width="170" height="150" as="geometry" />
        </mxCell>
        <mxCell id="jDXTL4kX9GD-vCOHamEt-35" value="company: Company" style="text;strokeColor=none;fillColor=none;align=left;verticalAlign=middle;spacingLeft=4;spacingRight=4;overflow=hidden;points=[[0,0.5],[1,0.5]];portConstraint=eastwest;rotatable=0;" parent="jDXTL4kX9GD-vCOHamEt-34" vertex="1">
          <mxGeometry y="30" width="170" height="30" as="geometry" />
        </mxCell>
        <mxCell id="jDXTL4kX9GD-vCOHamEt-36" value="status: ApprovementStatus" style="text;strokeColor=none;fillColor=none;align=left;verticalAlign=middle;spacingLeft=4;spacingRight=4;overflow=hidden;points=[[0,0.5],[1,0.5]];portConstraint=eastwest;rotatable=0;" parent="jDXTL4kX9GD-vCOHamEt-34" vertex="1">
          <mxGeometry y="60" width="170" height="30" as="geometry" />
        </mxCell>
        <mxCell id="jDXTL4kX9GD-vCOHamEt-56" value="statusChanded: DateTime" style="text;strokeColor=none;fillColor=none;align=left;verticalAlign=middle;spacingLeft=4;spacingRight=4;overflow=hidden;points=[[0,0.5],[1,0.5]];portConstraint=eastwest;rotatable=0;" parent="jDXTL4kX9GD-vCOHamEt-34" vertex="1">
          <mxGeometry y="90" width="170" height="30" as="geometry" />
        </mxCell>
        <mxCell id="jDXTL4kX9GD-vCOHamEt-55" value="approvedBy:Moderator" style="text;strokeColor=none;fillColor=none;align=left;verticalAlign=middle;spacingLeft=4;spacingRight=4;overflow=hidden;points=[[0,0.5],[1,0.5]];portConstraint=eastwest;rotatable=0;" parent="jDXTL4kX9GD-vCOHamEt-34" vertex="1">
          <mxGeometry y="120" width="170" height="30" as="geometry" />
        </mxCell>
        <mxCell id="jDXTL4kX9GD-vCOHamEt-38" value="VehicleCategory" style="swimlane;fontStyle=0;childLayout=stackLayout;horizontal=1;startSize=30;horizontalStack=0;resizeParent=1;resizeParentMax=0;resizeLast=0;collapsible=1;marginBottom=0;" parent="1" vertex="1">
          <mxGeometry x="410" y="230" width="200" height="60" as="geometry" />
        </mxCell>
        <mxCell id="jDXTL4kX9GD-vCOHamEt-39" value="name: str" style="text;strokeColor=none;fillColor=none;align=left;verticalAlign=middle;spacingLeft=4;spacingRight=4;overflow=hidden;points=[[0,0.5],[1,0.5]];portConstraint=eastwest;rotatable=0;" parent="jDXTL4kX9GD-vCOHamEt-38" vertex="1">
          <mxGeometry y="30" width="200" height="30" as="geometry" />
        </mxCell>
        <mxCell id="jDXTL4kX9GD-vCOHamEt-44" style="edgeStyle=entityRelationEdgeStyle;rounded=0;orthogonalLoop=1;jettySize=auto;html=1;elbow=vertical;entryX=1;entryY=0.5;entryDx=0;entryDy=0;endArrow=none;endFill=0;strokeWidth=1;endSize=11;startArrow=diamondThin;startFill=0;startSize=14;" parent="1" source="jDXTL4kX9GD-vCOHamEt-43" target="jDXTL4kX9GD-vCOHamEt-39" edge="1">
          <mxGeometry relative="1" as="geometry" />
        </mxCell>
        <mxCell id="jDXTL4kX9GD-vCOHamEt-47" style="edgeStyle=orthogonalEdgeStyle;rounded=0;orthogonalLoop=1;jettySize=auto;html=1;entryX=0;entryY=0.25;entryDx=0;entryDy=0;elbow=vertical;endArrow=none;endFill=0;strokeWidth=1;endSize=11;startArrow=diamondThin;startFill=0;startSize=14;" parent="1" source="jDXTL4kX9GD-vCOHamEt-35" target="jDXTL4kX9GD-vCOHamEt-10" edge="1">
          <mxGeometry relative="1" as="geometry" />
        </mxCell>
        <mxCell id="jDXTL4kX9GD-vCOHamEt-48" value="CompanyApprovementStatus" style="swimlane;fontStyle=0;childLayout=stackLayout;horizontal=1;startSize=30;horizontalStack=0;resizeParent=1;resizeParentMax=0;resizeLast=0;collapsible=1;marginBottom=0;" parent="1" vertex="1">
          <mxGeometry x="-450" y="160" width="170" height="90" as="geometry" />
        </mxCell>
        <mxCell id="Ciz52iVOTJIjRRQWWWbt-1" value="id:str" style="text;strokeColor=none;fillColor=none;align=left;verticalAlign=middle;spacingLeft=4;spacingRight=4;overflow=hidden;points=[[0,0.5],[1,0.5]];portConstraint=eastwest;rotatable=0;" parent="jDXTL4kX9GD-vCOHamEt-48" vertex="1">
          <mxGeometry y="30" width="170" height="30" as="geometry" />
        </mxCell>
        <mxCell id="jDXTL4kX9GD-vCOHamEt-49" value="name:str" style="text;strokeColor=none;fillColor=none;align=left;verticalAlign=middle;spacingLeft=4;spacingRight=4;overflow=hidden;points=[[0,0.5],[1,0.5]];portConstraint=eastwest;rotatable=0;" parent="jDXTL4kX9GD-vCOHamEt-48" vertex="1">
          <mxGeometry y="60" width="170" height="30" as="geometry" />
        </mxCell>
        <mxCell id="jDXTL4kX9GD-vCOHamEt-52" style="edgeStyle=orthogonalEdgeStyle;rounded=0;orthogonalLoop=1;jettySize=auto;html=1;entryX=1;entryY=0.5;entryDx=0;entryDy=0;elbow=vertical;endArrow=none;endFill=0;startArrow=diamondThin;startFill=0;endSize=11;startSize=14;" parent="1" source="jDXTL4kX9GD-vCOHamEt-36" target="jDXTL4kX9GD-vCOHamEt-49" edge="1">
          <mxGeometry relative="1" as="geometry">
            <Array as="points">
              <mxPoint x="-240" y="243" />
              <mxPoint x="-240" y="205" />
            </Array>
          </mxGeometry>
        </mxCell>
        <mxCell id="jDXTL4kX9GD-vCOHamEt-57" style="edgeStyle=orthogonalEdgeStyle;rounded=0;orthogonalLoop=1;jettySize=auto;html=1;entryX=1;entryY=0.25;entryDx=0;entryDy=0;elbow=vertical;endArrow=none;endFill=0;startArrow=diamondThin;startFill=0;endSize=11;startSize=14;" parent="1" source="jDXTL4kX9GD-vCOHamEt-55" target="jDXTL4kX9GD-vCOHamEt-29" edge="1">
          <mxGeometry relative="1" as="geometry">
            <Array as="points">
              <mxPoint x="-240" y="303" />
              <mxPoint x="-240" y="378" />
            </Array>
          </mxGeometry>
        </mxCell>
        <mxCell id="jDXTL4kX9GD-vCOHamEt-58" value="Place" style="swimlane;fontStyle=0;childLayout=stackLayout;horizontal=1;startSize=30;horizontalStack=0;resizeParent=1;resizeParentMax=0;resizeLast=0;collapsible=1;marginBottom=0;" parent="1" vertex="1">
          <mxGeometry x="1320" y="152" width="150" height="180" as="geometry" />
        </mxCell>
        <mxCell id="jDXTL4kX9GD-vCOHamEt-59" value="name: str" style="text;strokeColor=none;fillColor=none;align=left;verticalAlign=middle;spacingLeft=4;spacingRight=4;overflow=hidden;points=[[0,0.5],[1,0.5]];portConstraint=eastwest;rotatable=0;" parent="jDXTL4kX9GD-vCOHamEt-58" vertex="1">
          <mxGeometry y="30" width="150" height="30" as="geometry" />
        </mxCell>
        <mxCell id="jDXTL4kX9GD-vCOHamEt-61" value="description: str" style="text;strokeColor=none;fillColor=none;align=left;verticalAlign=middle;spacingLeft=4;spacingRight=4;overflow=hidden;points=[[0,0.5],[1,0.5]];portConstraint=eastwest;rotatable=0;" parent="jDXTL4kX9GD-vCOHamEt-58" vertex="1">
          <mxGeometry y="60" width="150" height="30" as="geometry" />
        </mxCell>
        <mxCell id="jDXTL4kX9GD-vCOHamEt-60" value="longitude: Decimal" style="text;strokeColor=none;fillColor=none;align=left;verticalAlign=middle;spacingLeft=4;spacingRight=4;overflow=hidden;points=[[0,0.5],[1,0.5]];portConstraint=eastwest;rotatable=0;" parent="jDXTL4kX9GD-vCOHamEt-58" vertex="1">
          <mxGeometry y="90" width="150" height="30" as="geometry" />
        </mxCell>
        <mxCell id="atfgpZ-5ebNzYxhqKIcK-3" value="latitude: Decimal" style="text;strokeColor=none;fillColor=none;align=left;verticalAlign=middle;spacingLeft=4;spacingRight=4;overflow=hidden;points=[[0,0.5],[1,0.5]];portConstraint=eastwest;rotatable=0;" parent="jDXTL4kX9GD-vCOHamEt-58" vertex="1">
          <mxGeometry y="120" width="150" height="30" as="geometry" />
        </mxCell>
        <mxCell id="jDXTL4kX9GD-vCOHamEt-86" value="country_id: int" style="text;strokeColor=none;fillColor=none;align=left;verticalAlign=middle;spacingLeft=4;spacingRight=4;overflow=hidden;points=[[0,0.5],[1,0.5]];portConstraint=eastwest;rotatable=0;" parent="jDXTL4kX9GD-vCOHamEt-58" vertex="1">
          <mxGeometry y="150" width="150" height="30" as="geometry" />
        </mxCell>
        <mxCell id="jDXTL4kX9GD-vCOHamEt-62" value="Route" style="swimlane;fontStyle=0;childLayout=stackLayout;horizontal=1;startSize=30;horizontalStack=0;resizeParent=1;resizeParentMax=0;resizeLast=0;collapsible=1;marginBottom=0;" parent="1" vertex="1">
          <mxGeometry x="1070" y="128" width="140" height="150" as="geometry" />
        </mxCell>
        <mxCell id="jDXTL4kX9GD-vCOHamEt-63" value="from: Place" style="text;strokeColor=none;fillColor=none;align=left;verticalAlign=middle;spacingLeft=4;spacingRight=4;overflow=hidden;points=[[0,0.5],[1,0.5]];portConstraint=eastwest;rotatable=0;" parent="jDXTL4kX9GD-vCOHamEt-62" vertex="1">
          <mxGeometry y="30" width="140" height="30" as="geometry" />
        </mxCell>
        <mxCell id="mh8mkMSBT4OB_jZMb-LL-1" value="to: Place" style="text;strokeColor=none;fillColor=none;align=left;verticalAlign=middle;spacingLeft=4;spacingRight=4;overflow=hidden;points=[[0,0.5],[1,0.5]];portConstraint=eastwest;rotatable=0;" parent="jDXTL4kX9GD-vCOHamEt-62" vertex="1">
          <mxGeometry y="60" width="140" height="30" as="geometry" />
        </mxCell>
        <mxCell id="mh8mkMSBT4OB_jZMb-LL-2" value="active_from: date" style="text;strokeColor=none;fillColor=none;align=left;verticalAlign=middle;spacingLeft=4;spacingRight=4;overflow=hidden;points=[[0,0.5],[1,0.5]];portConstraint=eastwest;rotatable=0;" parent="jDXTL4kX9GD-vCOHamEt-62" vertex="1">
          <mxGeometry y="90" width="140" height="30" as="geometry" />
        </mxCell>
        <mxCell id="jDXTL4kX9GD-vCOHamEt-64" value="active_to: date " style="text;strokeColor=none;fillColor=none;align=left;verticalAlign=middle;spacingLeft=4;spacingRight=4;overflow=hidden;points=[[0,0.5],[1,0.5]];portConstraint=eastwest;rotatable=0;" parent="jDXTL4kX9GD-vCOHamEt-62" vertex="1">
          <mxGeometry y="120" width="140" height="30" as="geometry" />
        </mxCell>
        <mxCell id="jDXTL4kX9GD-vCOHamEt-66" style="edgeStyle=orthogonalEdgeStyle;rounded=0;orthogonalLoop=1;jettySize=auto;html=1;entryX=0;entryY=0.25;entryDx=0;entryDy=0;elbow=vertical;endArrow=none;endFill=0;startArrow=diamondThin;startFill=1;endSize=11;startSize=14;" parent="1" source="jDXTL4kX9GD-vCOHamEt-63" target="jDXTL4kX9GD-vCOHamEt-58" edge="1">
          <mxGeometry relative="1" as="geometry">
            <Array as="points">
              <mxPoint x="1260" y="175" />
              <mxPoint x="1260" y="190" />
              <mxPoint x="1320" y="190" />
            </Array>
          </mxGeometry>
        </mxCell>
        <mxCell id="jDXTL4kX9GD-vCOHamEt-67" style="edgeStyle=orthogonalEdgeStyle;rounded=0;orthogonalLoop=1;jettySize=auto;html=1;elbow=vertical;entryX=0;entryY=0.25;entryDx=0;entryDy=0;endArrow=none;endFill=0;startArrow=diamondThin;startFill=1;endSize=11;startSize=14;" parent="1" target="jDXTL4kX9GD-vCOHamEt-58" edge="1">
          <mxGeometry relative="1" as="geometry">
            <mxPoint x="1000" y="360" as="targetPoint" />
            <Array as="points">
              <mxPoint x="1260" y="205" />
              <mxPoint x="1260" y="190" />
              <mxPoint x="1320" y="190" />
            </Array>
            <mxPoint x="1210" y="205" as="sourcePoint" />
          </mxGeometry>
        </mxCell>
        <mxCell id="jDXTL4kX9GD-vCOHamEt-68" value="Trip" style="swimlane;fontStyle=0;childLayout=stackLayout;horizontal=1;startSize=30;horizontalStack=0;resizeParent=1;resizeParentMax=0;resizeLast=0;collapsible=1;marginBottom=0;" parent="1" vertex="1">
          <mxGeometry x="775" y="108" width="190" height="210" as="geometry" />
        </mxCell>
        <mxCell id="jDXTL4kX9GD-vCOHamEt-69" value="route: Route" style="text;strokeColor=none;fillColor=none;align=left;verticalAlign=middle;spacingLeft=4;spacingRight=4;overflow=hidden;points=[[0,0.5],[1,0.5]];portConstraint=eastwest;rotatable=0;" parent="jDXTL4kX9GD-vCOHamEt-68" vertex="1">
          <mxGeometry y="30" width="190" height="30" as="geometry" />
        </mxCell>
        <mxCell id="jDXTL4kX9GD-vCOHamEt-70" value="vehicle: Vehicle" style="text;strokeColor=none;fillColor=none;align=left;verticalAlign=middle;spacingLeft=4;spacingRight=4;overflow=hidden;points=[[0,0.5],[1,0.5]];portConstraint=eastwest;rotatable=0;" parent="jDXTL4kX9GD-vCOHamEt-68" vertex="1">
          <mxGeometry y="60" width="190" height="30" as="geometry" />
        </mxCell>
        <mxCell id="jDXTL4kX9GD-vCOHamEt-71" value="start_at: DateTime" style="text;strokeColor=none;fillColor=none;align=left;verticalAlign=middle;spacingLeft=4;spacingRight=4;overflow=hidden;points=[[0,0.5],[1,0.5]];portConstraint=eastwest;rotatable=0;" parent="jDXTL4kX9GD-vCOHamEt-68" vertex="1">
          <mxGeometry y="90" width="190" height="30" as="geometry" />
        </mxCell>
        <mxCell id="jDXTL4kX9GD-vCOHamEt-72" value="end_at: DateTime" style="text;strokeColor=none;fillColor=none;align=left;verticalAlign=middle;spacingLeft=4;spacingRight=4;overflow=hidden;points=[[0,0.5],[1,0.5]];portConstraint=eastwest;rotatable=0;" parent="jDXTL4kX9GD-vCOHamEt-68" vertex="1">
          <mxGeometry y="120" width="190" height="30" as="geometry" />
        </mxCell>
        <mxCell id="jDXTL4kX9GD-vCOHamEt-87" value="status:TripStatus" style="text;strokeColor=none;fillColor=none;align=left;verticalAlign=middle;spacingLeft=4;spacingRight=4;overflow=hidden;points=[[0,0.5],[1,0.5]];portConstraint=eastwest;rotatable=0;" parent="jDXTL4kX9GD-vCOHamEt-68" vertex="1">
          <mxGeometry y="150" width="190" height="30" as="geometry" />
        </mxCell>
        <mxCell id="jDXTL4kX9GD-vCOHamEt-75" value="description: str" style="text;strokeColor=none;fillColor=none;align=left;verticalAlign=middle;spacingLeft=4;spacingRight=4;overflow=hidden;points=[[0,0.5],[1,0.5]];portConstraint=eastwest;rotatable=0;" parent="jDXTL4kX9GD-vCOHamEt-68" vertex="1">
          <mxGeometry y="180" width="190" height="30" as="geometry" />
        </mxCell>
        <mxCell id="jDXTL4kX9GD-vCOHamEt-73" style="edgeStyle=orthogonalEdgeStyle;rounded=0;orthogonalLoop=1;jettySize=auto;html=1;entryX=0;entryY=0.25;entryDx=0;entryDy=0;elbow=vertical;endArrow=none;endFill=0;startArrow=diamondThin;startFill=0;endSize=11;startSize=14;" parent="1" source="jDXTL4kX9GD-vCOHamEt-69" target="jDXTL4kX9GD-vCOHamEt-62" edge="1">
          <mxGeometry relative="1" as="geometry" />
        </mxCell>
        <mxCell id="jDXTL4kX9GD-vCOHamEt-74" style="edgeStyle=orthogonalEdgeStyle;rounded=0;orthogonalLoop=1;jettySize=auto;html=1;entryX=1;entryY=0.5;entryDx=0;entryDy=0;elbow=vertical;endArrow=none;endFill=0;strokeWidth=1;endSize=11;startArrow=diamondThin;startFill=0;startSize=14;" parent="1" source="jDXTL4kX9GD-vCOHamEt-70" target="jDXTL4kX9GD-vCOHamEt-7" edge="1">
          <mxGeometry relative="1" as="geometry">
            <Array as="points">
              <mxPoint x="710" y="183" />
              <mxPoint x="710" y="100" />
            </Array>
          </mxGeometry>
        </mxCell>
        <mxCell id="jDXTL4kX9GD-vCOHamEt-76" value="CasualUser" style="swimlane;fontStyle=0;childLayout=stackLayout;horizontal=1;startSize=30;horizontalStack=0;resizeParent=1;resizeParentMax=0;resizeLast=0;collapsible=1;marginBottom=0;" parent="1" vertex="1">
          <mxGeometry x="1040" y="740" width="140" height="90" as="geometry" />
        </mxCell>
        <mxCell id="jDXTL4kX9GD-vCOHamEt-134" value="balance: Decimal" style="text;strokeColor=none;fillColor=none;align=left;verticalAlign=middle;spacingLeft=4;spacingRight=4;overflow=hidden;points=[[0,0.5],[1,0.5]];portConstraint=eastwest;rotatable=0;" parent="jDXTL4kX9GD-vCOHamEt-76" vertex="1">
          <mxGeometry y="30" width="140" height="30" as="geometry" />
        </mxCell>
        <mxCell id="u1v4r5TJMtI3zMluvvGJ-2" value="account: User" style="text;strokeColor=none;fillColor=none;align=left;verticalAlign=middle;spacingLeft=4;spacingRight=4;overflow=hidden;points=[[0,0.5],[1,0.5]];portConstraint=eastwest;rotatable=0;" parent="jDXTL4kX9GD-vCOHamEt-76" vertex="1">
          <mxGeometry y="60" width="140" height="30" as="geometry" />
        </mxCell>
        <mxCell id="jDXTL4kX9GD-vCOHamEt-88" value="TripStatus" style="swimlane;fontStyle=0;childLayout=stackLayout;horizontal=1;startSize=30;horizontalStack=0;resizeParent=1;resizeParentMax=0;resizeLast=0;collapsible=1;marginBottom=0;" parent="1" vertex="1">
          <mxGeometry x="1070" y="306" width="140" height="60" as="geometry" />
        </mxCell>
        <mxCell id="jDXTL4kX9GD-vCOHamEt-89" value="name: str" style="text;strokeColor=none;fillColor=none;align=left;verticalAlign=middle;spacingLeft=4;spacingRight=4;overflow=hidden;points=[[0,0.5],[1,0.5]];portConstraint=eastwest;rotatable=0;" parent="jDXTL4kX9GD-vCOHamEt-88" vertex="1">
          <mxGeometry y="30" width="140" height="30" as="geometry" />
        </mxCell>
        <mxCell id="jDXTL4kX9GD-vCOHamEt-92" style="edgeStyle=entityRelationEdgeStyle;rounded=0;orthogonalLoop=1;jettySize=auto;html=1;entryX=0;entryY=0.25;entryDx=0;entryDy=0;elbow=vertical;endArrow=none;endFill=0;startArrow=diamondThin;startFill=0;endSize=11;startSize=14;" parent="1" source="jDXTL4kX9GD-vCOHamEt-87" target="jDXTL4kX9GD-vCOHamEt-88" edge="1">
          <mxGeometry relative="1" as="geometry" />
        </mxCell>
        <mxCell id="jDXTL4kX9GD-vCOHamEt-93" value="Ticket" style="swimlane;fontStyle=0;childLayout=stackLayout;horizontal=1;startSize=30;horizontalStack=0;resizeParent=1;resizeParentMax=0;resizeLast=0;collapsible=1;marginBottom=0;" parent="1" vertex="1">
          <mxGeometry x="775" y="350" width="140" height="180" as="geometry" />
        </mxCell>
        <mxCell id="jDXTL4kX9GD-vCOHamEt-135" value="passenger:Passenger" style="text;strokeColor=none;fillColor=none;align=left;verticalAlign=middle;spacingLeft=4;spacingRight=4;overflow=hidden;points=[[0,0.5],[1,0.5]];portConstraint=eastwest;rotatable=0;" parent="jDXTL4kX9GD-vCOHamEt-93" vertex="1">
          <mxGeometry y="30" width="140" height="30" as="geometry" />
        </mxCell>
        <mxCell id="jDXTL4kX9GD-vCOHamEt-95" value="createAt: DateTime" style="text;strokeColor=none;fillColor=none;align=left;verticalAlign=middle;spacingLeft=4;spacingRight=4;overflow=hidden;points=[[0,0.5],[1,0.5]];portConstraint=eastwest;rotatable=0;" parent="jDXTL4kX9GD-vCOHamEt-93" vertex="1">
          <mxGeometry y="60" width="140" height="30" as="geometry" />
        </mxCell>
        <mxCell id="jDXTL4kX9GD-vCOHamEt-105" value="trip:Trip" style="text;strokeColor=none;fillColor=none;align=left;verticalAlign=middle;spacingLeft=4;spacingRight=4;overflow=hidden;points=[[0,0.5],[1,0.5]];portConstraint=eastwest;rotatable=0;" parent="jDXTL4kX9GD-vCOHamEt-93" vertex="1">
          <mxGeometry y="90" width="140" height="30" as="geometry" />
        </mxCell>
        <mxCell id="jDXTL4kX9GD-vCOHamEt-96" value="price: Decimal" style="text;strokeColor=none;fillColor=none;align=left;verticalAlign=middle;spacingLeft=4;spacingRight=4;overflow=hidden;points=[[0,0.5],[1,0.5]];portConstraint=eastwest;rotatable=0;" parent="jDXTL4kX9GD-vCOHamEt-93" vertex="1">
          <mxGeometry y="120" width="140" height="30" as="geometry" />
        </mxCell>
        <mxCell id="jDXTL4kX9GD-vCOHamEt-97" value="categary: TicketCategory" style="text;strokeColor=none;fillColor=none;align=left;verticalAlign=middle;spacingLeft=4;spacingRight=4;overflow=hidden;points=[[0,0.5],[1,0.5]];portConstraint=eastwest;rotatable=0;" parent="jDXTL4kX9GD-vCOHamEt-93" vertex="1">
          <mxGeometry y="150" width="140" height="30" as="geometry" />
        </mxCell>
        <mxCell id="jDXTL4kX9GD-vCOHamEt-99" value="TicketCategory" style="swimlane;fontStyle=0;childLayout=stackLayout;horizontal=1;startSize=30;horizontalStack=0;resizeParent=1;resizeParentMax=0;resizeLast=0;collapsible=1;marginBottom=0;" parent="1" vertex="1">
          <mxGeometry x="440" y="340" width="140" height="120" as="geometry" />
        </mxCell>
        <mxCell id="jDXTL4kX9GD-vCOHamEt-100" value="name: str" style="text;strokeColor=none;fillColor=none;align=left;verticalAlign=middle;spacingLeft=4;spacingRight=4;overflow=hidden;points=[[0,0.5],[1,0.5]];portConstraint=eastwest;rotatable=0;" parent="jDXTL4kX9GD-vCOHamEt-99" vertex="1">
          <mxGeometry y="30" width="140" height="30" as="geometry" />
        </mxCell>
        <mxCell id="jDXTL4kX9GD-vCOHamEt-101" value="company: Company" style="text;strokeColor=none;fillColor=none;align=left;verticalAlign=middle;spacingLeft=4;spacingRight=4;overflow=hidden;points=[[0,0.5],[1,0.5]];portConstraint=eastwest;rotatable=0;" parent="jDXTL4kX9GD-vCOHamEt-99" vertex="1">
          <mxGeometry y="60" width="140" height="30" as="geometry" />
        </mxCell>
        <mxCell id="jDXTL4kX9GD-vCOHamEt-102" value="ratio: Decimal" style="text;strokeColor=none;fillColor=none;align=left;verticalAlign=middle;spacingLeft=4;spacingRight=4;overflow=hidden;points=[[0,0.5],[1,0.5]];portConstraint=eastwest;rotatable=0;" parent="jDXTL4kX9GD-vCOHamEt-99" vertex="1">
          <mxGeometry y="90" width="140" height="30" as="geometry" />
        </mxCell>
        <mxCell id="jDXTL4kX9GD-vCOHamEt-103" style="edgeStyle=orthogonalEdgeStyle;rounded=0;orthogonalLoop=1;jettySize=auto;html=1;entryX=1;entryY=0.5;entryDx=0;entryDy=0;elbow=vertical;endArrow=none;endFill=0;strokeWidth=1;endSize=11;startArrow=diamondThin;startFill=0;startSize=14;" parent="1" source="jDXTL4kX9GD-vCOHamEt-101" target="jDXTL4kX9GD-vCOHamEt-11" edge="1">
          <mxGeometry relative="1" as="geometry">
            <Array as="points">
              <mxPoint x="360" y="415" />
              <mxPoint x="360" y="225" />
            </Array>
          </mxGeometry>
        </mxCell>
        <mxCell id="jDXTL4kX9GD-vCOHamEt-104" style="edgeStyle=orthogonalEdgeStyle;rounded=0;orthogonalLoop=1;jettySize=auto;html=1;entryX=1;entryY=0.25;entryDx=0;entryDy=0;elbow=vertical;endArrow=none;endFill=0;startArrow=diamondThin;startFill=0;endSize=11;startSize=14;" parent="1" source="jDXTL4kX9GD-vCOHamEt-97" target="jDXTL4kX9GD-vCOHamEt-99" edge="1">
          <mxGeometry relative="1" as="geometry">
            <Array as="points">
              <mxPoint x="845" y="560" />
              <mxPoint x="640" y="560" />
              <mxPoint x="640" y="370" />
            </Array>
          </mxGeometry>
        </mxCell>
        <mxCell id="jDXTL4kX9GD-vCOHamEt-106" style="edgeStyle=orthogonalEdgeStyle;rounded=0;orthogonalLoop=1;jettySize=auto;html=1;endArrow=none;endFill=0;strokeWidth=1;endSize=11;startArrow=diamondThin;startFill=0;startSize=14;" parent="1" source="jDXTL4kX9GD-vCOHamEt-93" target="jDXTL4kX9GD-vCOHamEt-68" edge="1">
          <mxGeometry relative="1" as="geometry">
            <mxPoint x="740" y="280" as="targetPoint" />
            <Array as="points">
              <mxPoint x="710" y="455" />
              <mxPoint x="710" y="225" />
            </Array>
          </mxGeometry>
        </mxCell>
        <mxCell id="jDXTL4kX9GD-vCOHamEt-108" value="CompanyDocument" style="swimlane;fontStyle=0;childLayout=stackLayout;horizontal=1;startSize=30;horizontalStack=0;resizeParent=1;resizeParentMax=0;resizeLast=0;collapsible=1;marginBottom=0;" parent="1" vertex="1">
          <mxGeometry x="410" y="490" width="140" height="120" as="geometry" />
        </mxCell>
        <mxCell id="jDXTL4kX9GD-vCOHamEt-109" value="content: Base64" style="text;strokeColor=none;fillColor=none;align=left;verticalAlign=middle;spacingLeft=4;spacingRight=4;overflow=hidden;points=[[0,0.5],[1,0.5]];portConstraint=eastwest;rotatable=0;" parent="jDXTL4kX9GD-vCOHamEt-108" vertex="1">
          <mxGeometry y="30" width="140" height="30" as="geometry" />
        </mxCell>
        <mxCell id="jDXTL4kX9GD-vCOHamEt-110" value="type: DocumentType" style="text;strokeColor=none;fillColor=none;align=left;verticalAlign=middle;spacingLeft=4;spacingRight=4;overflow=hidden;points=[[0,0.5],[1,0.5]];portConstraint=eastwest;rotatable=0;" parent="jDXTL4kX9GD-vCOHamEt-108" vertex="1">
          <mxGeometry y="60" width="140" height="30" as="geometry" />
        </mxCell>
        <mxCell id="jDXTL4kX9GD-vCOHamEt-119" value="status:DocumentStatus" style="text;strokeColor=none;fillColor=none;align=left;verticalAlign=middle;spacingLeft=4;spacingRight=4;overflow=hidden;points=[[0,0.5],[1,0.5]];portConstraint=eastwest;rotatable=0;" parent="jDXTL4kX9GD-vCOHamEt-108" vertex="1">
          <mxGeometry y="90" width="140" height="30" as="geometry" />
        </mxCell>
        <mxCell id="jDXTL4kX9GD-vCOHamEt-113" value="DocumentType" style="swimlane;fontStyle=0;childLayout=stackLayout;horizontal=1;startSize=30;horizontalStack=0;resizeParent=1;resizeParentMax=0;resizeLast=0;collapsible=1;marginBottom=0;" parent="1" vertex="1">
          <mxGeometry x="580" y="790" width="140" height="60" as="geometry" />
        </mxCell>
        <mxCell id="jDXTL4kX9GD-vCOHamEt-114" value="name: str" style="text;strokeColor=none;fillColor=none;align=left;verticalAlign=middle;spacingLeft=4;spacingRight=4;overflow=hidden;points=[[0,0.5],[1,0.5]];portConstraint=eastwest;rotatable=0;" parent="jDXTL4kX9GD-vCOHamEt-113" vertex="1">
          <mxGeometry y="30" width="140" height="30" as="geometry" />
        </mxCell>
        <mxCell id="jDXTL4kX9GD-vCOHamEt-118" style="edgeStyle=orthogonalEdgeStyle;rounded=0;orthogonalLoop=1;jettySize=auto;html=1;endArrow=none;endFill=0;entryX=0;entryY=0.25;entryDx=0;entryDy=0;strokeWidth=1;endSize=11;startArrow=diamondThin;startFill=0;startSize=14;" parent="1" source="jDXTL4kX9GD-vCOHamEt-110" target="jDXTL4kX9GD-vCOHamEt-113" edge="1">
          <mxGeometry relative="1" as="geometry">
            <mxPoint x="560" y="820" as="targetPoint" />
            <Array as="points">
              <mxPoint x="360" y="565" />
              <mxPoint x="360" y="805" />
            </Array>
          </mxGeometry>
        </mxCell>
        <mxCell id="jDXTL4kX9GD-vCOHamEt-120" value="DocumentStatus" style="swimlane;fontStyle=0;childLayout=stackLayout;horizontal=1;startSize=30;horizontalStack=0;resizeParent=1;resizeParentMax=0;resizeLast=0;collapsible=1;marginBottom=0;" parent="1" vertex="1">
          <mxGeometry x="420" y="620" width="140" height="60" as="geometry" />
        </mxCell>
        <mxCell id="jDXTL4kX9GD-vCOHamEt-121" value="name: str" style="text;strokeColor=none;fillColor=none;align=left;verticalAlign=middle;spacingLeft=4;spacingRight=4;overflow=hidden;points=[[0,0.5],[1,0.5]];portConstraint=eastwest;rotatable=0;" parent="jDXTL4kX9GD-vCOHamEt-120" vertex="1">
          <mxGeometry y="30" width="140" height="30" as="geometry" />
        </mxCell>
        <mxCell id="jDXTL4kX9GD-vCOHamEt-122" style="edgeStyle=orthogonalEdgeStyle;rounded=0;orthogonalLoop=1;jettySize=auto;html=1;entryX=1;entryY=0.25;entryDx=0;entryDy=0;endArrow=none;endFill=0;startArrow=diamondThin;startFill=0;endSize=11;startSize=14;" parent="1" source="jDXTL4kX9GD-vCOHamEt-119" target="jDXTL4kX9GD-vCOHamEt-120" edge="1">
          <mxGeometry relative="1" as="geometry" />
        </mxCell>
        <mxCell id="jDXTL4kX9GD-vCOHamEt-125" style="rounded=0;orthogonalLoop=1;jettySize=auto;html=1;entryX=0;entryY=0.5;entryDx=0;entryDy=0;exitX=1;exitY=0.5;exitDx=0;exitDy=0;edgeStyle=orthogonalEdgeStyle;endArrow=none;endFill=0;strokeWidth=1;endSize=11;startArrow=diamondThin;startFill=0;startSize=14;" parent="1" source="jDXTL4kX9GD-vCOHamEt-126" target="jDXTL4kX9GD-vCOHamEt-109" edge="1">
          <mxGeometry relative="1" as="geometry">
            <mxPoint x="-50" y="275" as="sourcePoint" />
            <Array as="points">
              <mxPoint x="340" y="345" />
              <mxPoint x="340" y="515" />
            </Array>
          </mxGeometry>
        </mxCell>
        <mxCell id="jDXTL4kX9GD-vCOHamEt-127" value="User" style="swimlane;fontStyle=0;childLayout=stackLayout;horizontal=1;startSize=30;horizontalStack=0;resizeParent=1;resizeParentMax=0;resizeLast=0;collapsible=1;marginBottom=0;" parent="1" vertex="1">
          <mxGeometry x="170" y="930" width="210" height="270" as="geometry" />
        </mxCell>
        <mxCell id="jDXTL4kX9GD-vCOHamEt-128" value="name: str" style="text;strokeColor=none;fillColor=none;align=left;verticalAlign=middle;spacingLeft=4;spacingRight=4;overflow=hidden;points=[[0,0.5],[1,0.5]];portConstraint=eastwest;rotatable=0;" parent="jDXTL4kX9GD-vCOHamEt-127" vertex="1">
          <mxGeometry y="30" width="210" height="30" as="geometry" />
        </mxCell>
        <mxCell id="QeSOPeUyVK4mowC6hQN8-2" value="lastname: str" style="text;strokeColor=none;fillColor=none;align=left;verticalAlign=middle;spacingLeft=4;spacingRight=4;overflow=hidden;points=[[0,0.5],[1,0.5]];portConstraint=eastwest;rotatable=0;" parent="jDXTL4kX9GD-vCOHamEt-127" vertex="1">
          <mxGeometry y="60" width="210" height="30" as="geometry" />
        </mxCell>
        <mxCell id="QeSOPeUyVK4mowC6hQN8-3" value="middlename: str" style="text;strokeColor=none;fillColor=none;align=left;verticalAlign=middle;spacingLeft=4;spacingRight=4;overflow=hidden;points=[[0,0.5],[1,0.5]];portConstraint=eastwest;rotatable=0;" parent="jDXTL4kX9GD-vCOHamEt-127" vertex="1">
          <mxGeometry y="90" width="210" height="30" as="geometry" />
        </mxCell>
        <mxCell id="QeSOPeUyVK4mowC6hQN8-1" value="mail: str" style="text;strokeColor=none;fillColor=none;align=left;verticalAlign=middle;spacingLeft=4;spacingRight=4;overflow=hidden;points=[[0,0.5],[1,0.5]];portConstraint=eastwest;rotatable=0;" parent="jDXTL4kX9GD-vCOHamEt-127" vertex="1">
          <mxGeometry y="120" width="210" height="30" as="geometry" />
        </mxCell>
        <mxCell id="jDXTL4kX9GD-vCOHamEt-129" value="hashed_password: str" style="text;strokeColor=none;fillColor=none;align=left;verticalAlign=middle;spacingLeft=4;spacingRight=4;overflow=hidden;points=[[0,0.5],[1,0.5]];portConstraint=eastwest;rotatable=0;" parent="jDXTL4kX9GD-vCOHamEt-127" vertex="1">
          <mxGeometry y="150" width="210" height="30" as="geometry" />
        </mxCell>
        <mxCell id="jDXTL4kX9GD-vCOHamEt-130" value="birthday: Date" style="text;strokeColor=none;fillColor=none;align=left;verticalAlign=middle;spacingLeft=4;spacingRight=4;overflow=hidden;points=[[0,0.5],[1,0.5]];portConstraint=eastwest;rotatable=0;" parent="jDXTL4kX9GD-vCOHamEt-127" vertex="1">
          <mxGeometry y="180" width="210" height="30" as="geometry" />
        </mxCell>
        <mxCell id="jDXTL4kX9GD-vCOHamEt-131" value="sex:str" style="text;strokeColor=none;fillColor=none;align=left;verticalAlign=middle;spacingLeft=4;spacingRight=4;overflow=hidden;points=[[0,0.5],[1,0.5]];portConstraint=eastwest;rotatable=0;" parent="jDXTL4kX9GD-vCOHamEt-127" vertex="1">
          <mxGeometry y="210" width="210" height="30" as="geometry" />
        </mxCell>
        <mxCell id="jDXTL4kX9GD-vCOHamEt-132" value="createdAt: DateTime&#xa;" style="text;strokeColor=none;fillColor=none;align=left;verticalAlign=middle;spacingLeft=4;spacingRight=4;overflow=hidden;points=[[0,0.5],[1,0.5]];portConstraint=eastwest;rotatable=0;" parent="jDXTL4kX9GD-vCOHamEt-127" vertex="1">
          <mxGeometry y="240" width="210" height="30" as="geometry" />
        </mxCell>
        <mxCell id="jDXTL4kX9GD-vCOHamEt-141" style="edgeStyle=orthogonalEdgeStyle;rounded=0;orthogonalLoop=1;jettySize=auto;html=1;exitX=0;exitY=0.5;exitDx=0;exitDy=0;endArrow=none;endFill=0;entryX=1;entryY=0.25;entryDx=0;entryDy=0;startArrow=diamondThin;startFill=0;endSize=11;startSize=14;" parent="1" source="jDXTL4kX9GD-vCOHamEt-138" target="jDXTL4kX9GD-vCOHamEt-113" edge="1">
          <mxGeometry relative="1" as="geometry">
            <mxPoint x="730" y="805" as="targetPoint" />
            <Array as="points" />
          </mxGeometry>
        </mxCell>
        <mxCell id="jDXTL4kX9GD-vCOHamEt-136" value="Passenger" style="swimlane;fontStyle=0;childLayout=stackLayout;horizontal=1;startSize=30;horizontalStack=0;resizeParent=1;resizeParentMax=0;resizeLast=0;collapsible=1;marginBottom=0;" parent="1" vertex="1">
          <mxGeometry x="780" y="580" width="140" height="240" as="geometry" />
        </mxCell>
        <mxCell id="jDXTL4kX9GD-vCOHamEt-137" value="document_detail: str " style="text;strokeColor=none;fillColor=none;align=left;verticalAlign=middle;spacingLeft=4;spacingRight=4;overflow=hidden;points=[[0,0.5],[1,0.5]];portConstraint=eastwest;rotatable=0;" parent="jDXTL4kX9GD-vCOHamEt-136" vertex="1">
          <mxGeometry y="30" width="140" height="30" as="geometry" />
        </mxCell>
        <mxCell id="jDXTL4kX9GD-vCOHamEt-139" value="first_name: str" style="text;strokeColor=none;fillColor=none;align=left;verticalAlign=middle;spacingLeft=4;spacingRight=4;overflow=hidden;points=[[0,0.5],[1,0.5]];portConstraint=eastwest;rotatable=0;" parent="jDXTL4kX9GD-vCOHamEt-136" vertex="1">
          <mxGeometry y="60" width="140" height="30" as="geometry" />
        </mxCell>
        <mxCell id="jDXTL4kX9GD-vCOHamEt-142" value="last_name: str" style="text;strokeColor=none;fillColor=none;align=left;verticalAlign=middle;spacingLeft=4;spacingRight=4;overflow=hidden;points=[[0,0.5],[1,0.5]];portConstraint=eastwest;rotatable=0;" parent="jDXTL4kX9GD-vCOHamEt-136" vertex="1">
          <mxGeometry y="90" width="140" height="30" as="geometry" />
        </mxCell>
        <mxCell id="jDXTL4kX9GD-vCOHamEt-143" value="middle_name: str" style="text;strokeColor=none;fillColor=none;align=left;verticalAlign=middle;spacingLeft=4;spacingRight=4;overflow=hidden;points=[[0,0.5],[1,0.5]];portConstraint=eastwest;rotatable=0;" parent="jDXTL4kX9GD-vCOHamEt-136" vertex="1">
          <mxGeometry y="120" width="140" height="30" as="geometry" />
        </mxCell>
        <mxCell id="jDXTL4kX9GD-vCOHamEt-144" value="birthday:Date" style="text;strokeColor=none;fillColor=none;align=left;verticalAlign=middle;spacingLeft=4;spacingRight=4;overflow=hidden;points=[[0,0.5],[1,0.5]];portConstraint=eastwest;rotatable=0;" parent="jDXTL4kX9GD-vCOHamEt-136" vertex="1">
          <mxGeometry y="150" width="140" height="30" as="geometry" />
        </mxCell>
        <mxCell id="jDXTL4kX9GD-vCOHamEt-146" value="owner: CasualUser" style="text;strokeColor=none;fillColor=none;align=left;verticalAlign=middle;spacingLeft=4;spacingRight=4;overflow=hidden;points=[[0,0.5],[1,0.5]];portConstraint=eastwest;rotatable=0;" parent="jDXTL4kX9GD-vCOHamEt-136" vertex="1">
          <mxGeometry y="180" width="140" height="30" as="geometry" />
        </mxCell>
        <mxCell id="jDXTL4kX9GD-vCOHamEt-138" value="type: DocumentType" style="text;strokeColor=none;fillColor=none;align=left;verticalAlign=middle;spacingLeft=4;spacingRight=4;overflow=hidden;points=[[0,0.5],[1,0.5]];portConstraint=eastwest;rotatable=0;" parent="jDXTL4kX9GD-vCOHamEt-136" vertex="1">
          <mxGeometry y="210" width="140" height="30" as="geometry" />
        </mxCell>
        <mxCell id="jDXTL4kX9GD-vCOHamEt-147" style="edgeStyle=orthogonalEdgeStyle;rounded=0;orthogonalLoop=1;jettySize=auto;html=1;entryX=-0.004;entryY=0.016;entryDx=0;entryDy=0;entryPerimeter=0;endArrow=none;endFill=0;startArrow=diamondThin;startFill=0;endSize=11;startSize=14;" parent="1" source="jDXTL4kX9GD-vCOHamEt-146" target="jDXTL4kX9GD-vCOHamEt-134" edge="1">
          <mxGeometry relative="1" as="geometry">
            <mxPoint x="1020" y="750" as="targetPoint" />
            <Array as="points">
              <mxPoint x="970" y="775" />
              <mxPoint x="970" y="776" />
            </Array>
          </mxGeometry>
        </mxCell>
        <mxCell id="NnbSLNQW330KgA1LCjZR-10" style="edgeStyle=orthogonalEdgeStyle;rounded=0;orthogonalLoop=1;jettySize=auto;html=1;entryX=1;entryY=0.5;entryDx=0;entryDy=0;exitX=1;exitY=0.5;exitDx=0;exitDy=0;endArrow=none;endFill=0;startArrow=diamondThin;startFill=0;endSize=11;startSize=14;" parent="1" source="jDXTL4kX9GD-vCOHamEt-135" target="jDXTL4kX9GD-vCOHamEt-137" edge="1">
          <mxGeometry relative="1" as="geometry">
            <Array as="points">
              <mxPoint x="970" y="395" />
              <mxPoint x="970" y="625" />
            </Array>
          </mxGeometry>
        </mxCell>
        <mxCell id="u1v4r5TJMtI3zMluvvGJ-3" style="edgeStyle=orthogonalEdgeStyle;rounded=0;orthogonalLoop=1;jettySize=auto;html=1;entryX=1;entryY=0.161;entryDx=0;entryDy=0;entryPerimeter=0;endArrow=none;endFill=0;strokeWidth=1;endSize=11;startArrow=diamondThin;startFill=0;startSize=14;" parent="1" source="u1v4r5TJMtI3zMluvvGJ-2" target="jDXTL4kX9GD-vCOHamEt-127" edge="1">
          <mxGeometry relative="1" as="geometry">
            <Array as="points">
              <mxPoint x="960" y="815" />
              <mxPoint x="960" y="973" />
            </Array>
          </mxGeometry>
        </mxCell>
        <mxCell id="u1v4r5TJMtI3zMluvvGJ-4" style="edgeStyle=entityRelationEdgeStyle;rounded=0;orthogonalLoop=1;jettySize=auto;html=1;entryX=0;entryY=0.25;entryDx=0;entryDy=0;endArrow=none;endFill=0;strokeWidth=1;endSize=11;startArrow=diamondThin;startFill=0;startSize=14;" parent="1" source="jDXTL4kX9GD-vCOHamEt-3" target="jDXTL4kX9GD-vCOHamEt-127" edge="1">
          <mxGeometry relative="1" as="geometry">
            <mxPoint x="10" y="380" as="sourcePoint" />
          </mxGeometry>
        </mxCell>
        <mxCell id="atfgpZ-5ebNzYxhqKIcK-4" style="edgeStyle=orthogonalEdgeStyle;rounded=0;orthogonalLoop=1;jettySize=auto;html=1;entryX=0.024;entryY=-0.067;entryDx=0;entryDy=0;entryPerimeter=0;startArrow=diamondThin;startFill=0;startSize=12;endArrow=none;endFill=0;" parent="1" source="jDXTL4kX9GD-vCOHamEt-30" target="jDXTL4kX9GD-vCOHamEt-128" edge="1">
          <mxGeometry relative="1" as="geometry">
            <Array as="points">
              <mxPoint x="-240" y="400" />
              <mxPoint x="-240" y="958" />
            </Array>
          </mxGeometry>
        </mxCell>
        <mxCell id="YzKU_VFRiXsNvZqMwa6l-1" value="Company_Worker" style="swimlane;fontStyle=0;childLayout=stackLayout;horizontal=1;startSize=30;horizontalStack=0;resizeParent=1;resizeParentMax=0;resizeLast=0;collapsible=1;marginBottom=0;" vertex="1" parent="1">
          <mxGeometry x="110" y="410" width="170" height="90" as="geometry" />
        </mxCell>
        <mxCell id="YzKU_VFRiXsNvZqMwa6l-2" value="company_id: int" style="text;strokeColor=none;fillColor=none;align=left;verticalAlign=middle;spacingLeft=4;spacingRight=4;overflow=hidden;points=[[0,0.5],[1,0.5]];portConstraint=eastwest;rotatable=0;" vertex="1" parent="YzKU_VFRiXsNvZqMwa6l-1">
          <mxGeometry y="30" width="170" height="30" as="geometry" />
        </mxCell>
        <mxCell id="YzKU_VFRiXsNvZqMwa6l-3" value="user_id: int" style="text;strokeColor=none;fillColor=none;align=left;verticalAlign=middle;spacingLeft=4;spacingRight=4;overflow=hidden;points=[[0,0.5],[1,0.5]];portConstraint=eastwest;rotatable=0;" vertex="1" parent="YzKU_VFRiXsNvZqMwa6l-1">
          <mxGeometry y="60" width="170" height="30" as="geometry" />
        </mxCell>
        <mxCell id="YzKU_VFRiXsNvZqMwa6l-7" style="edgeStyle=orthogonalEdgeStyle;rounded=0;orthogonalLoop=1;jettySize=auto;html=1;entryX=1;entryY=0.5;entryDx=0;entryDy=0;dashed=1;endArrow=diamondThin;endFill=0;targetPerimeterSpacing=-1;endSize=15;" edge="1" parent="1" source="jDXTL4kX9GD-vCOHamEt-11" target="YzKU_VFRiXsNvZqMwa6l-2">
          <mxGeometry relative="1" as="geometry">
            <Array as="points">
              <mxPoint x="360" y="224.9999999999999" />
              <mxPoint x="360" y="455" />
            </Array>
          </mxGeometry>
        </mxCell>
        <mxCell id="YzKU_VFRiXsNvZqMwa6l-8" style="edgeStyle=orthogonalEdgeStyle;rounded=0;orthogonalLoop=1;jettySize=auto;html=1;entryX=1.017;entryY=0.313;entryDx=0;entryDy=0;entryPerimeter=0;endArrow=diamondThin;endFill=0;endSize=15;targetPerimeterSpacing=-1;" edge="1" parent="1" source="jDXTL4kX9GD-vCOHamEt-128" target="YzKU_VFRiXsNvZqMwa6l-3">
          <mxGeometry relative="1" as="geometry" />
        </mxCell>
        <mxCell id="YzKU_VFRiXsNvZqMwa6l-9" value="Country" style="swimlane;fontStyle=0;childLayout=stackLayout;horizontal=1;startSize=30;horizontalStack=0;resizeParent=1;resizeParentMax=0;resizeLast=0;collapsible=1;marginBottom=0;" vertex="1" parent="1">
          <mxGeometry x="1540" y="272" width="150" height="60" as="geometry" />
        </mxCell>
        <mxCell id="YzKU_VFRiXsNvZqMwa6l-10" value="name: str" style="text;strokeColor=none;fillColor=none;align=left;verticalAlign=middle;spacingLeft=4;spacingRight=4;overflow=hidden;points=[[0,0.5],[1,0.5]];portConstraint=eastwest;rotatable=0;" vertex="1" parent="YzKU_VFRiXsNvZqMwa6l-9">
          <mxGeometry y="30" width="150" height="30" as="geometry" />
        </mxCell>
        <mxCell id="YzKU_VFRiXsNvZqMwa6l-15" style="edgeStyle=orthogonalEdgeStyle;rounded=0;orthogonalLoop=1;jettySize=auto;html=1;entryX=1;entryY=0.5;entryDx=0;entryDy=0;endArrow=diamondThin;endFill=0;endSize=15;targetPerimeterSpacing=-1;" edge="1" parent="1" source="YzKU_VFRiXsNvZqMwa6l-10" target="jDXTL4kX9GD-vCOHamEt-86">
          <mxGeometry relative="1" as="geometry" />
        </mxCell>
      </root>
    </mxGraphModel>
  </diagram>
</mxfile>
